# xmcd
#
# Track frame offsets:
#	150
#	14082
#	27117
#	42772
#	58110
#	76210
#	92762
#	108117
#	122565
#	138205
#	152177
#	166942
#	184345
#	201735
#
# Disc length: 2944 seconds
#
# Revision: 0
# Processed by: cddbd v1.5.1PL0 Copyright (c) Steve Scherf et al.
# Submitted via: audiograbber 1.83.01
#
DISCID=b80b7e0e
DTITLE=StarDisc - SD035 - Country Hits Today
DYEAR=1900
DGENRE=Karaoke
TTITLE0=Alan Jackson - Everything I Love
TTITLE1=Patty Loveless - She Drew A Broken Heart
TTITLE2=Travis Tritt - Where The Corn Don't Grow
TTITLE3=Deana Carter - We Danced Anyway
TTITLE4=Trace Adkins - This Ain't No Thinkin' Thing
TTITLE5=Reba McEntire - How Was I To Know
TTITLE6=Kenny Chesney - When I Close My Eyes
TTITLE7=Terri Clark - Emotional Girl
TTITLE8=Tracy Byrd - Don't Take Her, She's All I Got
TTITLE9=Lonestar - Heartbroke Every Day
TTITLE10=Deryl Dodd - That's How I Got To Memphis
TTITLE11=Marty Stuart - You Can't Stop Love
TTITLE12=Randy Travis - Price To Pay
TTITLE13=David Lee Murphy - Genuine Rednecks
EXTD=
EXTT0=
EXTT1=
EXTT2=
EXTT3=
EXTT4=
EXTT5=
EXTT6=
EXTT7=
EXTT8=
EXTT9=
EXTT10=
EXTT11=
EXTT12=
EXTT13=
PLAYORDER=
